<svg
  xmlns="http://www.w3.org/2000/svg"
  xmlns:xlink="http://www.w3.org/1999/xlink"
  width="200"
  height="275"
  viewBox="0 0 200 275"
>
  <defs>
    <linearGradient
      id="a"
      x1="-244.81"
      y1="732.09"
      x2="-243.81"
      y2="732.09"
      gradientTransform="matrix(0, 63.54, 63.54, 0, -46353.32, 15631.07)"
      gradientUnits="userSpaceOnUse"
    >
      <stop offset="0" stop-color="#bf360c" stop-opacity="0.2" />
      <stop offset="1" stop-color="#bf360c" stop-opacity="0.02" />
    </linearGradient>
    <radialGradient
      id="b"
      cx="-231.14"
      cy="666.13"
      r="104.95"
      gradientTransform="matrix(4.23, 0, 0, -4.23, 983.11, 2822.23)"
      gradientUnits="userSpaceOnUse"
    >
      <stop offset="0" stop-color="#fff" stop-opacity="0.1" />
      <stop offset="1" stop-color="#fff" stop-opacity="0" />
    </radialGradient>
  </defs>
  <g>
    <path
      d="M125,0H18.75A18.81,18.81,0,0,0,0,18.75v237.5A18.81,18.81,0,0,0,18.75,275h162.5A18.81,18.81,0,0,0,200,256.25V75L156.25,43.75Z"
      style="fill: #f4b400"
    />
    <path
      d="M140.62,125H59.37A9.4,9.4,0,0,0,50,134.38v81.25A9.4,9.4,0,0,0,59.37,225h81.25a9.4,9.4,0,0,0,9.38-9.37V134.38A9.41,9.41,0,0,0,140.62,125Zm-3.12,71.88h-75V153.13h75Z"
      style="fill: #f1f1f1"
    />
    <path d="M130.48,69.52,200,139V75Z" style="fill: url(#a)" />
    <path
      d="M125,0V56.25A18.74,18.74,0,0,0,143.75,75H200Z"
      style="fill: #fada80"
    />
    <path
      d="M125,0V1.56L198.44,75H200Z"
      style="fill: #fff; fill-opacity: 0.10000000149011612"
    />
    <path
      d="M18.75,0A18.81,18.81,0,0,0,0,18.75v1.56A18.81,18.81,0,0,1,18.75,1.56H125V0Z"
      style="fill: #fff; fill-opacity: 0.20000000298023224"
    />
    <path
      d="M181.25,273.44H18.75A18.81,18.81,0,0,1,0,254.69v1.56A18.81,18.81,0,0,0,18.75,275h162.5A18.81,18.81,0,0,0,200,256.25v-1.56A18.81,18.81,0,0,1,181.25,273.44Z"
      style="fill: #bf360c; fill-opacity: 0.20000000298023224"
    />
    <path
      d="M143.75,75A18.74,18.74,0,0,1,125,56.25v1.56a18.74,18.74,0,0,0,18.75,18.75H200V75Z"
      style="fill: #bf360c; fill-opacity: 0.10000000149011612"
    />
    <path
      d="M125,0H18.75A18.81,18.81,0,0,0,0,18.75v237.5A18.81,18.81,0,0,0,18.75,275h162.5A18.81,18.81,0,0,0,200,256.25V75Z"
      style="fill: url(#b)"
    />
  </g>
</svg>
