<svg id="Layer_1" data-name="Layer 1" xmlns="http://www.w3.org/2000/svg" viewBox="0 0 1054.8 855.74"><defs><style>.cls-1{fill:#111;}</style></defs><path class="cls-1" d="M403.51.1C486.43.1,564.67.21,642.9,0c13.42,0,13.08,7.84,12,17.34-24.07,202.81-16.08,406.21-10.55,609.52,1.84,67.82,8.39,135.38,27.74,200.87,6.06,20.52,3.64,28.5-21.09,28-78.49-1.63-157-.6-240.34-.6,31.56-70.66,36.6-143.67,38.54-216.54,4.88-183.94,10.12-368-13.95-551.27C431.28,57.51,419.22,30.28,403.51.1Z"/><path class="cls-1" d="M774.16,854.43c127.6-49.7,217.93-138.09,280.64-258.57-2.81,76.46-.35,153-9.08,229.06-2.19,19.11-15.63,29.17-34.15,29.29C932.44,854.73,853.3,854.43,774.16,854.43Z"/><path class="cls-1" d="M155.37,631.22c8.42,85.59,21.29,163,89.29,221.92H0C65.36,788,114,715.45,155.37,631.22Z"/><path class="cls-1" d="M434.6,512.45c-86.91,2.33-174.54-5.42-257.44,50.48l82.17-230.19C270.63,446.79,344.56,487.88,434.6,512.45Z"/></svg>